<svg version="1.1" id="Layer_1" xmlns="http://www.w3.org/2000/svg" x="0" y="0" viewBox="0 0 512 341" xml:space="preserve"><style>.st0{fill:#f0f0f0}.st1{fill:#d80027}.st2{fill:#0052b4}</style><path class="st0" d="M0-.2h512v341.3H0V-.2z"/><path class="st1" d="M0-.2h512v113.8H0V-.2z"/><path class="st2" d="M0 227.4h512v113.8H0V227.4z"/><path d="M300.5 118.6h-29.7l4.9-37.1 19.8-14.8 19.8 14.8v29.7l-14.8 7.4zm-89 0h29.7l-4.9-37.1-19.8-14.8-19.8 14.8v29.7l14.8 7.4z" fill="#338af3"/><path class="st2" d="M275.8 118.6h-39.6V81.5L256 66.6l19.8 14.8v37.2z"/><path class="st0" d="M196.6 111.1v81.6c0 19.4 9.4 36.7 23.9 47.6l10.4-2.6 13.1 13.2c3.9.8 8 1.2 12 1.2 4.1 0 8.1-.4 11.9-1.2l15-12.5 8.6 1.8c14.5-10.8 23.9-28.1 23.9-47.5v-81.6H196.6z"/><path class="st1" d="M196.6 111.1h23.7v23.7h-23.7v-23.7zm47.5 0h23.7v23.7h-23.7v-23.7zm47.5 0h23.7v23.7h-23.7v-23.7zm-71.2 23.8h23.7v23.7h-23.7v-23.7zm47.5 0h23.7v23.7h-23.7v-23.7zm-71.3 23.7h23.7v23.7h-23.7v-23.7zm23.8 23.8h23.7v23.7h-23.7v-23.7zm23.7-23.8h23.7v23.7h-23.7v-23.7zm47.5 0h23.7v23.7h-23.7v-23.7zm-23.7 23.8h23.7v23.7h-23.7v-23.7zm-23.8 23.7h23.7v23.7h-23.7v-23.7zm-23.7 0h-22.2c2 8.7 6 16.8 11.5 23.7h10.7v-23.7zm71.2 23.8h10.7c5.6-6.9 9.5-15.1 11.5-23.7h-22.2v23.7zm-71.2 0v10.4c7 5.3 15.1 9 23.7 10.7v-21.1h-23.7zm47.5 0V251c8.6-1.8 16.7-5.4 23.7-10.7v-10.4h-23.7z"/></svg>