<svg xmlns="http://www.w3.org/2000/svg" viewBox="0 0 512 341"><path d="M0-.2h512v341.3H0V-.2z" fill="#fcfcfc"/><path d="M352 148.4h-22.2c0 40.8-33.1 73.8-73.8 73.8-40.8 0-73.8-33.1-73.8-73.8H160c0 43.9 29.5 81 69.8 92.4-4.4 8.4-3.7 19 2.6 26.8l24.1-19.3 24.1 19.3c6.4-8 7-18.6 2.4-27.1 39.9-11.7 69-48.5 69-92.1z" fill="#6da544"/><path d="M196.9 141s0 36.9 36.9 36.9l7.4 7.4H256s7.4-22.2 22.2-22.2c0 0 0-14.8 14.8-14.8h22.2s-7.4-29.5 29.5-51.7l-14.8-7.4s-51.7 36.9-88.6 29.5v14.8h-14.8l-7.4-7.4-22.2 14.9z" fill="#ffda44"/></svg>