<svg version="1.1" id="Layer_1" xmlns="http://www.w3.org/2000/svg" x="0" y="0" viewBox="0 0 512 341" xml:space="preserve"><style>.st0{fill:#f0f0f0}.st1{fill:#d80027}.st2{fill:#0052b4}</style><path class="st0" d="M0-.2h512v341.3H0V-.2z"/><path class="st1" d="M288-.2h-64v138.7H0v64h224v138.7h64V202.5h224v-64H288V-.2z"/><path class="st2" d="M393.8 229.9L512 295.5v-65.7l-118.2.1zm-82.1 0L512 341.2v-31.5l-143.7-79.8h-56.6zm146.9 111.3l-147-81.7v81.7h147z"/><path class="st0" d="M311.7 229.9L512 341.2v-31.5l-143.7-79.8h-56.6z"/><path class="st1" d="M311.7 229.9L512 341.2v-31.5l-143.7-79.8h-56.6z"/><path class="st2" d="M90.3 229.9L0 280v-50.2l90.3.1zm110 14.1v97.2H25.5L200.3 244z"/><path class="st1" d="M143.7 229.9L0 309.7v31.5l200.3-111.3h-56.6z"/><path class="st2" d="M118.2 111.1L0 45.5v65.7l118.2-.1zm82.1 0L0-.2v31.5l143.7 79.8h56.6zM53.4-.2l147 81.7V-.2h-147z"/><path class="st0" d="M200.3 111.1L0-.2v31.5l143.7 79.8h56.6z"/><path class="st1" d="M200.3 111.1L0-.2v31.5l143.7 79.8h56.6z"/><path class="st2" d="M421.7 111.1L512 60.9v50.2h-90.3zM311.7 97V-.2h174.9L311.7 97z"/><path class="st1" d="M368.3 111.1L512 31.3V-.2L311.7 111.1h56.6z"/></svg>