<svg xmlns="http://www.w3.org/2000/svg" viewBox="0 0 512 341"><path d="M0 0h512v341H0V0z" fill="#f0f0f0"/><path d="M297.4 212.7h214.1V341H297.4zm-297.9 0h215.1V341H-.5zM297.4 0h214.1v129.3H297.4zM-.5 0h215.1v129.3H-.5z" fill="none"/><path fill="#d80027" d="M511.5 212.7v-83.4H297.4V0h-82.8v129.3H-.5v83.4h215.1V341h82.8V212.7z"/><path d="M337.8 183.1l18.9 12.6V145l-18.9 12.6h-69.3V87.7l12.5-19h-50.4l12.5 19v69.9h-69.3L155 145v50.8l18.9-12.6h69.3V253l-12.5 19h50.4l-12.5-19v-69.9h69.2z" fill="#ffda44"/></svg>