<svg version="1.1" id="Layer_1" xmlns="http://www.w3.org/2000/svg" x="0" y="0" viewBox="0 0 512 341" xml:space="preserve"><style>.st1{fill:#f0f0f0}.st2{fill:#d80027}.st3{fill:#2e52b2}.st4{fill:#ffda44}</style><path d="M0-.2h512v341.3H0V-.2z" fill="#0052b4"/><path class="st1" d="M256-.2v117.3h-46.1l46.1 30.7v22.6h-22.6L160 121.6v48.9H96v-48.9l-73.4 48.9H0v-22.6l46.1-30.7H0v-64h46.1L0 22.5V-.2h22.6L96 48.7V-.2h64v48.9L233.4-.2H256z"/><path class="st2" d="M144-.2h-32v69.3H0v32h112v69.3h32v-69.3h112v-32H144V-.2z"/><path class="st2" d="M0-.2v15.1l57.4 38.3H80L0-.2zm256 0v15.1l-57.4 38.3H176L256-.2z"/><path class="st3" d="M256 22.5v30.7h-46.1L256 22.5z"/><path class="st2" d="M0-.2v15.1l57.4 38.3H80L0-.2zm256 0v15.1l-57.4 38.3H176L256-.2z"/><path class="st3" d="M256 22.5v30.7h-46.1L256 22.5z"/><path class="st2" d="M0 170.5v-15.1l57.4-38.3H80L0 170.5zm256 0v-15.1l-57.4-38.3H176l80 53.4z"/><path class="st4" d="M384 174.2l-46.1 46.1c8.6 16.7 26.1 28.1 46.1 28.1s37.5-11.4 46.1-28.1L384 174.2z"/><path d="M332.1 92.6v81.6c0 39.8 51.9 51.9 51.9 51.9s51.9-12.2 51.9-51.9V92.6H332.1z" fill="#6da544"/><path class="st1" d="M372.9 129.7h22.3V189h-22.3v-59.3z"/><circle cx="384" cy="129.7" r="11.1" fill="#a2001d"/><path class="st4" d="M346.9 107.4h14.8v14.8h-14.8v-14.8zm0 33.4h14.8v14.8h-14.8v-14.8zm0 33.4h14.8V189h-14.8v-14.8zm59.4-66.8h14.8v14.8h-14.8v-14.8zm0 33.4h14.8v14.8h-14.8v-14.8zm0 33.4h14.8V189h-14.8v-14.8z"/></svg>