<svg version="1.1" id="Layer_1" xmlns="http://www.w3.org/2000/svg" x="0" y="0" viewBox="0 0 512 341" xml:space="preserve"><style>.st0{fill:#f0f0f0}.st2{fill:#a2001d}</style><path class="st0" d="M0-.2h512v341.3H0V-.2z"/><path d="M0-.2h512v90.6H0V-.2z"/><path d="M0 250.6h512v90.6H0v-90.6z" fill="#496e2d"/><path class="st2" d="M0 113.1h512v114.8H0V113.1z"/><path class="st0" d="M323.3 54.3l-25.6-11.8-41.7 94.4-41.7-94.4-25.6 11.8 51.7 116.2-51.7 116.2 25.6 11.8 41.7-94.4 41.7 94.4 25.6-11.8-51.7-116.2 51.7-116.2z"/><path class="st0" d="M273.4 65.4c-9.9-10.8-17.4-17-17.4-17s-7.5 6.2-17.4 17v210.1c9.9 10.8 17.4 17 17.4 17s7.5-6.2 17.4-17V65.4z"/><path class="st2" d="M209 105.7v129.5c10.5 18.5 23.3 33.7 32.9 43.8V61.9c-9.6 10.1-22.4 25.3-32.9 43.8zm94 0c-10.5-18.5-23.3-33.7-32.9-43.8v217.2c9.6-10.1 22.4-25.3 32.9-43.8V105.7z"/><path d="M303 105.7v129.5c10.6-18.8 18.8-41 18.8-64.8s-8.2-45.9-18.8-64.7zm-94 0v129.5c-10.6-18.8-18.8-41-18.8-64.8s8.2-45.9 18.8-64.7z"/></svg>