<svg version="1.1" id="Layer_1" xmlns="http://www.w3.org/2000/svg" x="0" y="0" viewBox="0 0 512 341" xml:space="preserve"><style>.st1{fill:#f0f0f0}</style><path d="M0 0h512v341H0V0z" fill="#006c35"/><path class="st1" d="M183.5 203.9c0 12.3 9.7 22.3 21.7 22.3h65.2c0 10.2 8.1 18.6 18.1 18.6h21.7c10 0 18.1-8.3 18.1-18.6v-22.3H183.5zM330.3 96.3v51.9c0 8.2-6.5 14.8-14.5 14.8v22.3c20 0 36.2-16.6 36.2-37.1V96.3h-21.7zm-155.8 51.9c0 8.2-6.5 14.8-14.5 14.8v22.3c20 0 36.2-16.6 36.2-37.1V96.3h-21.7v51.9z"/><path class="st1" d="M297.7 96.3h21.7v51.9h-21.7V96.3zM265.1 126c0 2-1.6 3.7-3.6 3.7s-3.6-1.7-3.6-3.7V96.3h-21.7V126c0 2-1.6 3.7-3.6 3.7S229 128 229 126V96.3h-21.7V126c0 14.3 11.4 26 25.4 26 5.4 0 10.4-1.7 14.5-4.7 4.1 2.9 9.1 4.7 14.5 4.7 1.1 0 2.1-.1 3.2-.2-1.5 6.5-7.3 11.3-14.1 11.3v22.3c20 0 36.2-16.6 36.2-37.1v-52h-21.7l-.2 29.7z"/><path class="st1" d="M207.1 163.1h32.6v22.3h-32.6v-22.3z"/></svg>