<svg version="1.1" xmlns="http://www.w3.org/2000/svg" x="0px" y="0px" viewBox="0 0 512 341" xml:space="preserve"><style>.st1{fill:#fbd116}.st2{fill:#fff}</style><path fill="#00785e" d="M0 0h512v341H0z"/><path class="st1" d="M256 64.2l-11 33.9 28.8-21h-35.6l28.8 21zM184.4 116.7l-10.5 22.4 21.6-12-24.5-3 18.1 16.8zM202.2 86.9l7.2 23.6 8.1-23.3-20.3 14.1 24.7.5z"/><path class="st2" d="M256 232.8h-75.6c.9 1 1.8 1.9 2.7 2.8h145.8c.9-.9 1.8-1.9 2.7-2.8H256zM295.8 221.3c-5.8 0-11.4-.9-16.7-2.5-11.3-3.4-19-9.6-23.1-13.5-4.1 3.9-11.8 10.1-23.1 13.5-5.3 1.6-10.9 2.5-16.7 2.5h-44.9c1.3 1.9 2.7 3.8 4.2 5.7h43.4c14.2 0 27.1-5.1 37.2-13.6 10 8.5 23 13.6 37.2 13.6h43.4c1.5-1.8 2.8-3.7 4.2-5.7h-45.1z"/><path class="st2" d="M293.9 212c-3.5 0-6.9-.3-10.3-.9 1.6.1 3.1.2 4.7.2 24.7 0 45.7-15.5 54-37.3-8-3.3-16.8-5.2-26.1-5.2-16.5 0-31.7 5.9-43.4 15.8 12.3-12.9 29.7-20.9 48.8-20.9 1.2-2.4 2.9-4.5 4.8-6.3-1 0-2.1-.1-3.1-.1-19.3 0-36.7 8.1-49.1 21 7.1-9.6 11.3-21.4 11.3-34.3 0-10.3-2.7-20-7.5-28.4-1 3.5-2.9 6.6-5.4 9.2 3.5 7.5 5.5 15.8 5.5 24.7 0 13.3-4.5 25.5-12 35.3 6.1-9.2 9.7-20.2 9.7-32.1 0-5.7-.8-11.2-2.4-16.4-4.1-13.9-12.9-23-17.6-27.2-4.7 4.2-13.5 13.3-17.6 27.2-1.5 5.2-2.4 10.7-2.4 16.4 0 11.9 3.6 22.9 9.7 32.1-7.5-9.8-12-22-12-35.3 0-8.8 2-17.2 5.5-24.7-2.4-2.6-4.3-5.7-5.4-9.2-4.7 8.4-7.5 18.1-7.5 28.4 0 12.8 4.2 24.7 11.3 34.3-12.4-12.9-29.8-21-49.1-21-1 0-2.1 0-3.1.1 1.9 1.8 3.6 3.9 4.8 6.3 19.2 0 36.5 8.1 48.8 20.9-11.8-9.8-26.9-15.8-43.4-15.8-9.2 0-18 1.8-26.1 5.2 8.2 21.8 29.3 37.3 54 37.3 1.6 0 3.2-.1 4.7-.2-3.3.6-6.8.9-10.3.9-15.6 0-29.7-6.2-40.1-16.2-2.2.8-4.5 1.4-6.9 1.5 10.6 12 26 19.5 43.2 19.5 16.3 0 31.1-6.8 41.6-17.7 10.5 10.9 25.3 17.7 41.6 17.7 17.2 0 32.7-7.5 43.2-19.5-2.4-.1-4.7-.7-6.9-1.5-9.8 10-24 16.2-39.5 16.2zM256 258.9h-37.8c11.7 4.6 24.4 7.2 37.8 7.2s26.1-2.6 37.8-7.2H256zM256 241.5h-66.6c1.8 1.5 3.7 3 5.6 4.4h122c1.9-1.4 3.8-2.9 5.6-4.4H256zM256 250.4h-54.5c3.3 2.1 6.7 4 10.3 5.7h88.5c3.5-1.7 7-3.6 10.3-5.7H256z"/><path class="st1" d="M327.6 116.7l10.5 22.4-21.6-12 24.5-3-18.1 16.8zM309.8 86.9l-7.2 23.6-8.1-23.3 20.3 14.1-24.7.5z"/></svg>