<svg version="1.1" id="Layer_1" xmlns="http://www.w3.org/2000/svg" x="0" y="0" viewBox="0 0 512 341" xml:space="preserve"><style>.st1{fill:#6da544}</style><path d="M341.3-.2H0v341.3h512V-.2H341.3z" fill="#d80027"/><path class="st1" d="M0-.2h170.7v341.3H0V-.2z"/><path d="M170.7-.2h170.7v341.3H170.7V-.2z" fill="#f0f0f0"/><path class="st1" d="M208 170.5c0 26.5 21.5 48 48 48s48-21.5 48-48v-16h-96v16z"/><path d="M320 138.5h-48c0-8.8-7.2-16-16-16s-16 7.2-16 16h-48c0 8.8 7.7 16 16.5 16h-.5c0 8.8 7.2 16 16 16 0 8.8 7.2 16 16 16h32c8.8 0 16-7.2 16-16 8.8 0 16-7.2 16-16h-.5c8.8 0 16.5-7.2 16.5-16z" fill="#ff9811"/></svg>