<svg version="1.1" id="Layer_1" xmlns="http://www.w3.org/2000/svg" x="0" y="0" viewBox="0 0 512 341" xml:space="preserve"><style>.st4{fill:#c00}</style><g id="Capa_1"><path d="M0-.2h512v341.3H0V-.2z" fill="#f0f0f0"/><path d="M288-.2h-64v138.7H0v64h224v138.7h64V202.5h224v-64H288V-.2z" fill="#d80027"/></g><path d="M256 243l-19.3-40.1-44.3 3.3 25.1-36.7-25.1-36.7 44.3 3.3L256 96l19.3 40.1 44.3-3.3-25 36.7 25.1 36.7-44.3-3.3L256 243z" fill="#fff"/><path d="M256 245.3L236.1 204l-45.7 3.4 25.8-37.9-25.8-37.9 45.7 3.4L256 93.7l19.9 41.3 45.7-3.4-25.8 37.9 25.8 37.9-45.7-3.4-19.9 41.3zm-18.7-43.4l18.7 38.8 18.7-38.8 42.9 3.2-24.2-35.6 24.3-35.6-42.9 3.2L256 98.3l-18.7 38.8-42.9-3.2 24.3 35.6-24.3 35.6 42.9-3.2z" fill="#161111"/><path class="st4" d="M268 188.5c1.6-1.5 4.1-3.2 5.4-6.9 1.3-3.4 1.9-9.8 3.1-13 1.5-5.5 4.7-10.9 1-10.5-3.5.3-4.7 3.8-6 6.3-.6.9-2.1 2.9-2.3 4.1-.1-1.9-1-7.5-1.2-13-.2-5.2 0-10.6-.2-12.7-.2-2.7-.2-5.2-.8-7.2-.3-.9-1.6-1.8-2.3-1.8-1.4 0-2.3 1.3-2.5 2.4-.1.9-.1.6-.2 1.8-.1 1.5 0 3.4-.1 5.1-.1 1.8.1 3.9 0 5.6-.2 3.4-.5 6.6-.6 7.3 0-1.3-.6-7.3-.8-13-.1-2.2-.1-4.3-.2-6.3 0-1.6 0-3.3-.1-4.6-.3-2.1-1-3.1-2.5-3.1-1 0-2.5.8-3 3.1-.3 1.3-.3 2.9-.2 4.6 0 1.6.1 3.3.1 5-.1 6.5-.2 13.4-.5 15.5 0-.7-.7-4.1-.9-8.7-.1-1.8-.2-4-.3-6.1-.1-2.5-.1-4.3-.2-6 0-1-.4-3.9-2.3-3.7-1-.1-2.1.6-2.5 3.3-.2 1.5-.2 4.1-.3 6.1-.1 3.8-.2 7.2-.1 10.6.1 2.1.1 3.8.1 4.8 0 .3-.5-1.8-.8-4.6-.3-2.7-.5-6.2-.5-5.4 0-1.4-.1-3.5-.2-5.3-.1-1.4 0-2.9-1.5-2.7-1.5.1-2.4.6-2.7 3.2-.2 1.7-.3 5.2-.3 6.5.2 3.3-.7 11-1.1 13.2-.1 1.6-.7 3.6-1 5.7-.6 4.7 0 10.1.6 12.9 1.2 4.4 4.4 6.4 4.3 9.4-.2 3 0 8.3 0 10.6s2.1 2.5 6.3 1.6c6.9-1.5 10.7 1.5 16.5-.7-.7-6.5.7-10.5.7-12.8l.1-.6z"/><path d="M300.5 91.3c0-12.3-10-22.3-22.3-22.3-5.7 0-10.9 2.1-14.8 5.7V61.6h7.4V46.8h-7.4v-7.4h-14.8v7.4h-7.4v14.8h7.4v13.1c-3.9-3.5-9.1-5.7-14.8-5.7-12.3 0-22.3 10-22.3 22.3 0 6.6 2.9 12.5 7.4 16.6V121h74.2v-13.1c4.6-4.1 7.4-10 7.4-16.6z" fill="#ffda44"/><path class="st4" d="M284.2 105.9c3.5-3 5.7-7.3 5.7-12.1 0-8.9-7.6-16.2-17-16.2-4.4 0-14 6-17 8.6-3-2.6-12.7-8.6-17-8.6-9.4 0-17 7.3-17 16.2 0 4.8 2.2 9.1 5.7 12.1"/></svg>