<svg version="1.1" id="Layer_1" xmlns="http://www.w3.org/2000/svg" x="0" y="0" viewBox="0 0 512 341" xml:space="preserve"><style>.st0{fill:#0052b4}.st1{fill:#d80027}.st2{fill:#f0f0f0}</style><path class="st0" d="M0-.2h512v341.3H0V-.2z"/><path class="st1" d="M425.3 148.2l3.4 10.4h11l-8.9 6.4 3.4 10.4-8.9-6.4-8.9 6.4 3.4-10.4-8.9-6.4h11l3.4-10.4zm-39.2 75.1l5.1 15.6h16.4l-13.3 9.7 5.1 15.6-13.3-9.7-13.3 9.7 5.1-15.6-13.3-9.7H381l5.1-15.6zm1.5-122.8l4.2 13h13.7l-11.1 8.1 4.2 13-11.1-8.1-11.1 8.1 4.2-13-11.1-8.1h13.7l4.4-13zm-37.7 47.3l5.1 15.6h16.4l-13.3 9.7 5.1 15.6-13.3-9.7-13.3 9.7 5.1-15.6-13.3-9.7h16.4l5.1-15.6z"/><path class="st2" d="M256-.2v30.6l-45.2 25.1H256v59.4h-59.1l59.1 32.8v22.8h-26.7l-73.5-40.8v40.8h-55.7v-48.6l-87.4 48.6H0v-30.6l45.2-25.1H0V55.5h59.1L0 22.6V-.2h26.7l73.5 40.8V-.2h55.7v48.6L243.3-.2H256z"/><path class="st1" d="M144-.2h-32v69.3H0v32h112v69.3h32v-69.3h112v-32H144V-.2z"/><path class="st0" d="M155.8 114.8L256 170.5v-15.7l-71.8-39.9h-28.4z"/><path class="st2" d="M155.8 114.8L256 170.5v-15.7l-71.8-39.9h-28.4z"/><path class="st1" d="M155.8 114.8L256 170.5v-15.7l-71.8-39.9h-28.4zm-84 0L0 154.8v15.7l100.2-55.7H71.8z"/><path class="st0" d="M100.2 55.5L0-.2v15.7l71.8 39.9h28.4z"/><path class="st2" d="M100.2 55.5L0-.2v15.7l71.8 39.9h28.4z"/><path class="st1" d="M100.2 55.5L0-.2v15.7l71.8 39.9h28.4zm84 0L256 15.6V-.2L155.8 55.5h28.4z"/></svg>