<svg version="1.1" id="Layer_1" xmlns="http://www.w3.org/2000/svg" x="0" y="0" viewBox="0 0 512 341" xml:space="preserve"><style>.st0{fill:#f0f0f0}</style><path class="st0" d="M393.5 85l17.5 18.9 23.4-10.8-12.5 22.5 17.5 18.9-25.3-5-12.5 22.5-3.1-25.6-25.3-5 23.4-10.8-3.1-25.6z"/><path class="st0" d="M0-.2h512v341.3H0V-.2z"/><path d="M128-.2h384v341.3H128V-.2z" fill="#496e2d"/><path class="st0" d="M361.9 213.3c-31 22.4-74.4 15.4-96.8-15.6-22.4-31-15.4-74.4 15.6-96.8 9.7-7 20.5-11.1 31.6-12.6-21.3-3.2-43.8 1.6-62.6 15.2-38.2 27.6-46.8 80.9-19.2 119.1 27.6 38.2 80.9 46.8 119.1 19.2 18.8-13.6 30.4-33.4 34.1-54.7-4.8 10.2-12.1 19.2-21.8 26.2zm-1.3-125.9l17.5 18.8 23.3-10.8-12.5 22.4 17.5 18.8-25.2-5-12.5 22.4-3.1-25.5-25.2-5 23.3-10.8-3.1-25.3z"/></svg>