<svg xmlns="http://www.w3.org/2000/svg" viewBox="0 0 512 341"><path d="M0-.2h512v341.3H0V-.2z" fill="#f0f0f0"/><path d="M0-.2h512v113.8H0V-.2z" fill="#d80027"/><path d="M0 227.4h512v113.8H0V227.4z" fill="#0052b4"/><path d="M289.6 131.2L277 143.8c5.4 5.4 8.7 12.8 8.7 21 0 16.4-13.3 29.7-29.7 29.7s-29.7-13.3-29.7-29.7c0-8.2 3.3-15.6 8.7-21l-12.6-12.6a47.39 47.39 0 0 0-13.9 33.6c0 26.2 21.3 47.5 47.5 47.5s47.5-21.3 47.5-47.5c0-13.1-5.3-25-13.9-33.6z" fill="#6da544"/><path d="M256 147l4.4 13.6h14.3l-11.6 8.4 4.4 13.6-11.6-8.4-11.6 8.4 4.4-13.6-11.6-8.4h14.3L256 147z" fill="#ffda44"/></svg>