<svg xmlns="http://www.w3.org/2000/svg" viewBox="0 0 512 341"><path d="M0-.2h512v341.3H0V-.2z"/><path d="M0-.2h512v341.3" fill="#a2001d"/><path d="M204.6 241l2.8 8.5h8.9l-7.2 5.3 2.8 8.5-7.2-5.3-7.2 5.3 2.8-8.5-7.2-5.3h8.9l2.6-8.5zm-22.8-81.6l4.6 14.2h14.9l-12.1 8.8 4.6 14.2-12.1-8.8-12.1 8.8 4.6-14.2-12.1-8.8H177l4.8-14.2zm0 103.8l4.6 14.2h14.9l-12.1 8.8 4.6 14.2-12.1-8.8-12.1 8.8 4.6-14.2-12.1-8.8H177l4.8-14.2zm43.6-66.7l4.6 14.2h14.9l-12.1 8.8 4.6 14.2-12.1-8.8-12.1 8.8 4.6-14.2-12.1-8.8h14.9l4.8-14.2zm-87.2 0l4.6 14.2h14.9l-12.1 8.8 4.6 14.2-12.1-8.8-12.1 8.8 4.6-14.2-12.1-8.8h14.9l4.8-14.2z" fill="#f0f0f0"/><path d="M376.5 118.7c-7.6-7.6-17.5-12.1-28.2-12.9L380.2 81c-12.7-12.7-29.7-18.4-46.3-17.2-2-7.4-6-14.1-11.4-19.5l-12.6 25.2c-.8-1.5-1.9-3-3.1-4.2-7.2-7.2-19-7.2-26.2 0s-7.2 19 0 26.2c1.2 1.2 2.7 2.3 4.2 3.1l-25.2 12.6c5.4 5.4 12.1 9.4 19.5 11.4-1.2 16.6 4.5 33.6 17.2 46.3l27.9-35.8c2.1-2.1 4.9-3.2 7.8-3.2 3 0 5.8 1.2 7.9 3.3 2.1 2.1 3.3 4.9 3.3 7.9s-1.2 5.8-3.3 7.9l10.5 10.5c4.9-4.9 7.6-11.4 7.6-18.4 0-5.7-1.8-11.1-5.2-15.5 5 1.3 9.6 4 13.3 7.7 11.6 11.6 11.6 30.4 0 42l10.5 10.5c8.4-8.4 13-19.6 13-31.5 0-12-4.7-23.2-13.1-31.6z" fill="#ffda44"/></svg>