<svg version="1.1" id="Layer_1" xmlns="http://www.w3.org/2000/svg" x="0" y="0" viewBox="0 0 512 341" xml:space="preserve"><style>.st1{fill:#d80027}</style><path d="M0-.2h512v341.3H0V-.2z" fill="#f0f0f0"/><path class="st1" d="M0-.2h512v113.8H0V-.2zm0 227.6h512v113.8H0V227.4z"/><path d="M294 170.5c0 21-17 33.2-38 33.2s-38-12.3-38-33.2 17-38 38-38 38 17 38 38z" fill="#ffda44"/><path d="M294 170.5c0 21-17 38-38 38s-38-17-38-38" fill="#0052b4"/><path class="st1" d="M232.3 161h9.5v19h-9.5v-19zm37.9 0h9.5v19h-9.5v-19zm-19-14.2h9.5V180h-9.5v-33.2z"/></svg>