<svg xmlns="http://www.w3.org/2000/svg" viewBox="0 0 512 341"><path d="M0-.2h512v341.3H0V-.2z" fill="#f0f0f0"/><path d="M114 170.5L0 56.4v228.2l114-114.1z"/><path d="M161.2 170.5L0 9.2v47.2l114 114.1L0 284.6v47.1l161.2-161.2z" fill="#ffda44"/><path d="M509.8 203.9c.1-.4.8-.9 2.2-1.3v-65.5H222.6L85.3-.2H0v9.4l161.2 161.3L0 331.7v9.4h85.3l137.3-137.3h287.2z" fill="#6da544"/><path d="M503.2 237.3H236.4L132.6 341.2H512V237.3h-8.8z" fill="#0052b4"/><path d="M503.2 103.7h8.8V-.2H132.6l103.9 103.9h266.7z" fill="#d80027"/></svg>