<svg xmlns="http://www.w3.org/2000/svg" viewBox="0 0 512 341"><path d="M0 27.5h512v313.6H0V27.5z" fill="#00ab39"/><path d="M0-.2h512v170.6H0V-.2z" fill="#f0f0f0"/><path d="M346.5 31.6c-43.9 24.3-81.9 47.7-107.5 87.9-14.3 22.4 5.8 19.1-22.6 33.7-26.3 13.5-22.4-15.4-6.6-9.7 1.9-18.6-33.6-17.4 4.2-17.4 1.3 0-16.2-19.8-14.1-24.3 5.5-3.5 10.8-3.2 16.1.9-.6-14.4-13.4-10.2-13.7-17.1 2.9-4.3 7-5.5 12.5-3.6-7.3-21.5-34.4-14-2.5-35.2-7.1-1-3.5-8-2.6-14.7-25.3 34.9-97.5 2.7-127 39.5 27.1-1.3 48 17.6 52.9-.1 7-.1 12.9 2.7 17.5 8.5-3-3-68.3 4.3-74.2 3.8 20.7-10-14.9-10.1-27-19.6 2.6 9.9 19.5 36.5 32.1 36.2l-4.5-8.1c14.3.6 34.7 6.8 41.9 8.3 2.2.5 1.9 15.1 4.8 16.8 2.1-4.8 4-9.7 5.8-14.7 2-.4 8.8-2.1 20.1-8.4.8 12.4-32.2 104.3-33.8 104.7-46.7 12.3-23.5-78.4-29.7-81.9-.3 7.4-3.5 12.6-9.7 15.6-5.7-7.5 6.7-27.8-14.5-27.4 11.9 7 1.9 27 5 37.3-6.8-10.4-7.9-28.2-25.5-25.1 23.3 6.2 20.1 78.5-4.2 81.8 15.3-.8 21.6-9.9 27-24.1 6.2 33.4 47.2 46.2 47 82.7 19.7-18.6 7.9-23.9 37.1-22.6-6.2 12.7-9.3 38.6-24.8 46-8.6 4.1-46.8-11.7-48.6.4 7-2.7 10.6-1.1 10.8 4.7-5.6 6.7-15.7-.5-18.5 11 4.8-4 12.5-1.4 17.6.3.6 8.4-7.3 2-9.5 15.4 11.7-12.5 83.4-19.3 95.9-6.3.2-12.8-22.4-11.1-28.5-14.7 5.6-21.4 23.3-32.2 36.2-48.9 1.3 8.3 4.1 16.1 8.3 23.3 3.3-18.7 30.7-37.8 48.7-34.1 9.3 1.9 27.4 27.6 45.3 32.8-24.3 11.6-18.4 12.7-48.2 10.4-5.2-.4-23.4-15.8-26.4 1.1 5.6-4.1 27.3 6.2 29.8 12.9-7.7 2.3-37.9-12.6-38.7 6.3 8.3-7.4 11.8-.2 18.4 3.7-5.7 1.1-7.9 4.6-6.4 10.7 19.4-7.3 74.1-20.5 91.3-1.3.2-12.9-22.4-11.5-29.1-14.6 32.4-8.4 38.3-39.3 68.5-30.2.5-17.6-61.6-22.7-30.9-45.5 5-3.7 54.5 8.2 64.8 12.6 18.5 8 33.5 12.5 18.7 38.7-12.9 22.8-52.8-5.4-54.3 9.6 5.6-5.4 25.5 8.3 31.5 11.1-7.7-3.4-36.6-9.9-35.9 7.8 4-6.5 28.5-3.8 33.8-1.9-8.1 2.5-20.9 6.2-22.9 16.7 18.3-11.7 76.8-21.3 91.5-3.3-2.5-12.7-21.7-10.5-23.4-19.5-4.2-21.1 9.8-40.7.8-63.8 5.9 6.2 13.1 9.4 21.7 9.4 0-14.1-43.1-30.7-52.5-35.8 66.4-3.4 58.2-43.7 73-89.7 4.2 7.7 10.4 13 18.6 16.1-9.6-18.6-8.6-47.6-5.7-67.6-14.9 18.5-32 35.4-49.2 51.7 61.5 14.1-16.2 0-27.7 17.1-16.2 24 17.5 37.7 36.8 28.3-4.1 26-81.3 7.6-93.3 7.7 4.1-12.7 25.4-18.8 36.6-15.6-21.5-24 8-52.1 30.5-59.1-32.7-10.7 6.1-40.4 18.4-49.4-17.9 7.6-112.8 51.6-77.3-8.2zM142.8 57.9c3.9.1 7.6.9 11.1 2.5-7.3 12-16.1-2.5-11.1-2.5zm273.2 77c4.8 2.3 9.5 4.7 14.3 7-7.1 20.5-39-7-14.3-7z" fill="#d21034"/></svg>