<svg version="1.1" id="Layer_1" xmlns="http://www.w3.org/2000/svg" x="0" y="0" viewBox="0 0 512 341" xml:space="preserve"><style>.st0{fill:#ffda44}.st1{fill:#6da544}.st2{fill:#d80027}</style><path d="M0-.2h512v341.3H0V-.2z"/><path class="st0" d="M0 48.7h512v48.9H0V48.7zm0 195.5h512V293H0v-48.8z"/><path class="st1" d="M0-.2h512v48.9H0V-.2z"/><path class="st2" d="M0 97.6h512v48.9H0V97.6zm0 97.7h512v48.9H0v-48.9z"/><path class="st1" d="M0 293h512v48.1H0V293z"/><path d="M277 170.5L106.3 341.2H0V-.2h106.3L277 170.5z" fill="#f0f0f0"/><path d="M256 170.5L85.3 341.2h21L277 170.5 106.3-.2h-21L256 170.5z"/><path class="st2" d="M102.5 117.1l13.3 40.8h42.9L124 183.1l13.3 40.8-34.7-25.2-34.7 25.2L81 183.1l-34.7-25.2h42.9l13.3-40.8z"/><path class="st0" d="M138.9 173.8l-34.6-12.2s-2.6-24-2.7-24.8c-1.2-6.2-6.6-10.9-13.1-10.9-7.4 0-13.4 6-13.4 13.4 0 1.2.2 2.4.5 3.5l-9.7 9.8h17.2c0 17.9-13.3 17.9-13.3 35.7l7.4 17.8h44.5l7.4-17.8c.7-1.7 1.2-3.4 1.4-5.2 6.5-2.6 8.4-9.3 8.4-9.3z"/></svg>